<svg xmlns="http://www.w3.org/2000/svg" viewBox="0 0 64 64" width="64" height="64"><title>Stakeholders</title><rect width="64" height="64" rx="14" fill="#000000"/><line x1="20" y1="44" x2="42" y2="22" stroke="#FFFFFF" stroke-opacity=".75" stroke-width="2" stroke-linecap="round"/><path d="M0,-9 C1,-2 2,-1 9,0 C2,1 1,2 0,9 C-1,2 -2,1 -9,0 C-2,-1 -1,-2 0,-9Z" fill="#FFFFFF" transform="translate(20,44) scale(1.25)"/><path d="M0,-9 C1,-2 2,-1 9,0 C2,1 1,2 0,9 C-1,2 -2,1 -9,0 C-2,-1 -1,-2 0,-9Z" fill="#3B6EFF" transform="translate(42,22) scale(1.95)"/></svg>
